<?xml version="1.0" standalone="no"?>
<!DOCTYPE svg PUBLIC "-//W3C//DTD SVG 20010904//EN"
 "http://www.w3.org/TR/2001/REC-SVG-20010904/DTD/svg10.dtd">
<svg version="1.0" xmlns="http://www.w3.org/2000/svg"
 width="1389.000000pt" height="1389.000000pt" viewBox="0 0 1389.000000 1389.000000"
 preserveAspectRatio="xMidYMid meet">
<metadata>
Created by potrace 1.11, written by Peter Selinger 2001-2013
</metadata>
<g transform="translate(0.000000,1389.000000) scale(0.100000,-0.100000)"
fill="#000000" stroke="none">
<path d="M5710 11250 c-8 -5 -17 -7 -21 -4 -4 2 -20 -1 -36 -8 -15 -6 -32 -10
-36 -9 -13 2 -107 -51 -107 -61 0 -5 -4 -7 -9 -3 -6 3 -42 -26 -82 -65 -40
-38 -68 -70 -63 -70 5 0 1 -5 -9 -11 -9 -6 -15 -14 -12 -20 4 -5 1 -9 -6 -9
-7 0 -10 -3 -6 -6 3 -3 -2 -14 -10 -24 -49 -57 -83 -262 -60 -365 5 -22 10
-47 12 -55 2 -8 4 -15 5 -15 1 0 3 -7 5 -15 6 -31 58 -130 81 -155 12 -14 21
-25 18 -25 -9 0 57 -62 101 -96 41 -31 74 -48 88 -46 4 1 7 -2 7 -7 0 -5 15
-14 34 -21 32 -10 47 -14 111 -28 57 -12 207 -4 233 12 7 4 12 4 12 0 0 -3 7
-1 15 6 8 7 15 10 15 6 0 -8 129 58 158 81 42 33 117 106 102 98 -8 -4 -3 4
12 18 14 15 29 36 33 47 3 11 11 20 16 20 5 0 8 3 7 8 -1 4 3 17 10 30 7 12
10 22 6 22 -3 0 -1 6 5 14 24 29 40 128 35 221 -5 110 -7 125 -15 125 -4 0
-10 18 -14 40 -4 22 -11 40 -16 40 -6 0 -7 5 -4 10 3 6 1 10 -5 10 -6 0 -8 5
-5 10 3 6 1 10 -6 10 -7 0 -10 3 -6 6 3 3 -3 15 -14 27 -10 11 -19 26 -19 33
0 6 -7 14 -15 18 -8 3 -15 12 -15 21 0 8 -6 14 -12 13 -7 -2 -12 3 -10 10 1 6
-3 12 -9 12 -7 0 -25 13 -40 30 -16 16 -29 27 -29 23 0 -3 -11 4 -25 17 -14
13 -25 21 -25 17 0 -4 -15 2 -32 13 -18 11 -41 20 -50 20 -10 0 -18 5 -18 12
0 6 -3 9 -6 5 -3 -3 -26 0 -50 8 -49 15 -203 18 -224 5z"/>
<path d="M5223 9912 c-22 -3 -23 -6 -23 -130 -1 -1389 1 -3363 4 -3382 3 -14
7 -43 10 -65 5 -38 9 -56 22 -107 3 -13 7 -30 9 -38 2 -8 4 -15 5 -15 2 0 10
-32 17 -67 3 -16 10 -28 15 -28 5 0 7 -4 4 -8 -5 -8 12 -51 41 -104 8 -16 11
-28 7 -28 -4 0 1 -9 11 -20 10 -11 14 -20 10 -20 -4 0 0 -9 10 -20 10 -11 15
-20 11 -20 -3 0 5 -18 19 -40 14 -22 25 -44 25 -50 0 -5 5 -10 11 -10 5 0 8
-4 5 -8 -3 -5 4 -19 15 -30 10 -12 20 -25 20 -29 2 -12 62 -98 71 -101 4 -2 8
-10 8 -18 0 -7 11 -21 25 -30 14 -9 23 -19 21 -23 -3 -4 22 -35 55 -70 32 -35
59 -67 59 -72 0 -5 4 -9 9 -9 4 0 26 -18 47 -41 46 -48 186 -159 267 -213 141
-92 375 -197 497 -221 8 -2 15 -4 15 -5 0 -3 37 -11 110 -25 17 -3 44 -8 60
-12 137 -30 484 -34 615 -8 13 2 42 7 65 11 22 3 45 7 50 8 6 2 28 7 50 11 56
12 55 12 58 15 1 1 18 4 37 7 19 2 37 9 38 14 2 5 8 7 12 4 9 -6 139 43 202
75 20 10 38 17 41 14 2 -2 10 2 17 11 7 8 19 15 26 15 8 0 14 4 14 10 0 5 3 9
8 8 11 -2 62 24 62 33 0 4 11 10 25 13 14 4 25 11 25 16 0 6 7 10 15 10 7 0
19 8 24 18 6 9 11 13 11 7 0 -5 10 1 21 15 11 14 17 19 13 11 -5 -9 2 -7 18 5
14 10 24 22 21 27 -2 4 3 7 11 7 9 0 16 5 16 10 0 6 5 10 11 10 11 0 190 179
249 250 19 23 41 48 48 55 6 8 12 19 12 25 0 6 5 8 10 5 6 -3 10 1 10 9 0 9 4
16 10 16 5 0 9 4 7 9 -1 5 7 17 18 26 11 9 13 14 5 10 -10 -4 -9 -2 2 8 10 8
15 17 11 20 -3 4 -2 7 4 7 6 0 16 13 23 29 6 16 18 32 26 35 8 3 14 14 14 24
0 10 9 29 20 42 11 12 17 27 14 31 -3 5 0 9 5 9 6 0 11 6 11 13 0 7 5 18 12
25 6 6 13 22 15 34 2 13 8 25 13 26 6 2 8 8 4 13 -3 5 0 9 7 9 7 0 9 3 6 7 -4
3 -3 11 2 17 7 10 30 71 38 104 2 6 5 20 7 30 3 9 5 17 6 17 1 0 3 7 5 15 8
36 18 86 20 105 2 11 4 20 5 20 3 0 9 36 16 95 10 72 10 420 1 490 -4 30 -9
70 -12 89 -2 18 -7 42 -11 53 -3 11 -7 30 -9 41 -6 39 -16 80 -21 89 -3 5 -8
20 -10 35 -3 15 -8 31 -12 37 -3 6 -8 20 -9 31 -2 10 -7 22 -11 25 -4 3 -8 12
-10 20 -1 8 -7 24 -11 35 -5 11 -24 53 -42 93 -17 39 -36 72 -41 72 -5 0 -7 4
-4 9 4 5 3 11 -1 13 -5 1 -17 21 -28 43 -11 22 -28 47 -37 57 -10 10 -15 18
-12 18 6 0 -29 49 -84 120 -15 19 -48 56 -74 82 -25 25 -43 49 -40 52 3 3 1 6
-5 6 -6 0 -34 23 -62 52 -28 28 -51 47 -51 42 0 -5 -5 -1 -11 9 -6 10 -27 29
-47 42 -20 14 -65 45 -99 70 -35 25 -63 43 -63 40 0 -3 -10 3 -22 14 -11 11
-25 18 -30 15 -4 -3 -8 0 -8 6 0 6 -5 8 -10 5 -6 -3 -12 0 -15 7 -3 8 -28 22
-55 33 -28 11 -50 23 -50 28 0 4 -4 5 -10 2 -6 -3 -10 -1 -10 4 0 6 -8 11 -18
11 -10 0 -28 7 -40 16 -12 8 -22 12 -22 8 0 -3 -7 -1 -15 6 -8 7 -15 10 -15 6
0 -4 -18 3 -40 14 -22 11 -40 18 -40 16 0 -3 -16 2 -35 10 -19 8 -35 11 -35 8
0 -4 -7 -1 -15 6 -8 7 -15 9 -15 5 0 -4 -6 -2 -13 4 -8 6 -17 8 -20 5 -3 -3
-12 -2 -19 2 -14 9 -25 12 -72 19 -15 2 -37 7 -47 10 -11 4 -34 9 -52 11 -18
3 -43 8 -57 11 -14 3 -181 7 -373 8 -346 2 -347 2 -353 -19 -10 -43 17 -213
55 -333 5 -18 8 -33 6 -33 -2 0 2 -12 10 -27 8 -15 12 -30 9 -35 -3 -4 0 -8 6
-8 6 0 8 -4 5 -10 -3 -5 -1 -10 6 -10 7 0 9 -3 6 -7 -4 -3 2 -20 13 -38 11
-18 17 -35 13 -38 -3 -4 -1 -7 6 -7 7 0 9 -4 6 -10 -3 -5 -1 -10 5 -10 6 0 9
-4 6 -8 -3 -5 4 -19 15 -30 11 -12 17 -22 15 -22 -3 0 8 -21 24 -47 44 -69
155 -188 219 -236 31 -23 58 -45 59 -49 2 -5 9 -8 16 -8 7 0 21 -9 31 -20 10
-11 22 -17 26 -14 5 3 9 2 9 -3 0 -4 12 -17 27 -27 17 -13 24 -14 19 -5 -6 10
-4 10 6 -1 13 -16 57 -46 70 -49 4 -1 19 -13 34 -26 15 -14 30 -22 35 -20 4 3
13 -4 19 -16 7 -11 14 -18 17 -15 3 3 14 -4 24 -16 11 -11 19 -18 19 -15 0 3
18 -11 39 -32 22 -22 42 -37 44 -35 2 2 19 -15 37 -39 19 -23 40 -46 47 -50 7
-5 11 -12 8 -18 -4 -5 1 -12 9 -15 9 -3 16 -12 16 -20 0 -8 5 -14 11 -14 5 0
7 -4 4 -10 -3 -5 -1 -10 5 -10 6 0 8 -4 5 -10 -3 -5 -1 -10 5 -10 6 0 8 -4 5
-10 -3 -5 -1 -10 5 -10 6 0 9 -4 5 -9 -3 -5 -1 -12 5 -16 6 -4 8 -11 5 -16 -4
-5 -2 -9 3 -9 5 0 9 -6 10 -12 1 -15 10 -53 12 -53 2 0 5 -15 17 -70 9 -46 9
-228 0 -265 -12 -45 -52 -140 -59 -140 -5 0 -8 -7 -8 -15 0 -8 -5 -15 -11 -15
-5 0 -7 -4 -4 -10 3 -5 1 -10 -4 -10 -6 0 -11 -5 -11 -11 0 -7 -11 -22 -26
-35 -14 -13 -23 -24 -20 -24 3 0 -2 -9 -11 -20 -10 -11 -23 -20 -30 -20 -6 0
-15 -5 -19 -12 -5 -7 -3 -8 6 -3 9 5 11 4 6 -3 -4 -7 -13 -12 -19 -12 -7 0
-25 -11 -40 -25 -15 -14 -27 -22 -27 -18 0 4 -6 1 -13 -7 -11 -14 -78 -50
-102 -56 -33 -7 -41 -10 -45 -16 -15 -20 -283 -32 -340 -15 -8 2 -28 7 -45 12
-16 4 -36 13 -44 19 -8 6 -16 10 -18 9 -6 -5 -83 32 -83 39 0 5 -6 8 -14 8 -7
0 -24 11 -38 24 -14 12 -33 26 -42 29 -9 4 -16 14 -16 23 0 10 -3 14 -6 11 -4
-4 -14 2 -23 12 -41 48 -72 91 -71 97 1 4 -2 10 -7 13 -9 6 -57 98 -59 113 -1
4 -3 9 -4 11 -1 1 -4 11 -5 22 -2 11 -7 40 -11 65 -6 40 -8 854 -5 1870 1 320
-1 385 -13 465 -8 49 -23 126 -26 135 -1 3 -3 10 -5 15 -1 6 -3 13 -5 18 -1 4
-4 12 -5 17 -1 6 -4 12 -5 15 -1 3 -4 10 -5 15 -1 6 -3 11 -4 13 -2 1 -5 13
-7 27 -2 13 -10 28 -17 32 -6 4 -8 8 -3 8 5 0 3 6 -3 13 -6 8 -8 17 -4 20 3 4
0 7 -7 7 -7 0 -10 3 -7 7 4 3 2 12 -4 20 -6 7 -8 13 -5 13 4 0 -3 10 -14 22
-11 12 -18 28 -16 34 3 7 -2 15 -10 18 -9 3 -12 10 -9 16 3 5 1 10 -4 10 -6 0
-11 7 -11 15 0 8 -4 15 -10 15 -5 0 -10 7 -10 15 0 8 -4 15 -10 15 -5 0 -9 3
-7 8 1 4 -7 17 -18 29 -33 35 -46 53 -41 53 3 0 -31 36 -76 80 -45 44 -83 80
-85 80 -1 0 -12 8 -22 18 -38 34 -51 43 -51 35 0 -4 -5 0 -11 10 -5 9 -17 17
-24 17 -8 0 -15 5 -15 11 0 5 -4 7 -10 4 -5 -3 -10 -1 -10 5 0 6 -4 8 -10 5
-5 -3 -10 -1 -10 5 0 6 -4 8 -10 5 -5 -3 -10 -2 -10 2 0 5 -19 17 -42 28 -24
10 -67 29 -97 41 -29 13 -57 21 -62 18 -5 -3 -9 -1 -9 4 0 5 -6 9 -12 10 -7 0
-40 8 -73 16 -67 18 -104 24 -185 32 -30 3 -57 6 -60 8 -3 1 -15 0 -27 -2z"/>
<path d="M6050 9576 c0 -2 8 -10 18 -17 15 -13 16 -12 3 4 -13 16 -21 21 -21
13z"/>
<path d="M3978 3964 c-2 -2 -13 -5 -24 -7 -35 -6 -94 -31 -94 -40 0 -4 -5 -5
-10 -2 -6 4 -9 1 -8 -6 2 -7 -3 -13 -9 -14 -7 0 -12 -2 -11 -5 2 -3 -8 -21
-22 -39 -19 -28 -24 -47 -23 -90 1 -69 5 -90 24 -102 8 -5 10 -9 4 -9 -5 0 7
-11 27 -24 21 -12 37 -25 35 -27 -1 -2 0 -3 2 -2 2 2 10 -2 18 -8 7 -6 13 -8
13 -4 0 4 11 0 25 -9 14 -9 25 -14 25 -12 0 3 15 0 33 -5 17 -6 41 -12 52 -14
81 -15 135 -41 137 -68 3 -45 -3 -63 -27 -84 -22 -19 -34 -21 -102 -19 -43 2
-85 5 -93 8 -27 7 -95 42 -108 55 -16 15 -42 6 -42 -15 0 -8 -3 -12 -7 -9 -3
4 -15 -7 -25 -24 -16 -26 -16 -32 -4 -44 7 -8 16 -11 20 -8 3 4 6 1 6 -5 0 -7
5 -12 10 -12 6 0 22 -8 37 -17 14 -10 35 -19 47 -20 11 -2 23 -7 26 -11 15
-20 233 -22 258 -2 1 2 5 3 10 4 36 8 126 91 116 108 -3 4 -1 8 3 8 5 0 10 12
12 28 1 15 4 36 5 47 1 11 -3 35 -10 53 -7 17 -10 32 -6 32 4 0 -1 5 -11 11
-9 6 -14 16 -11 22 4 7 4 9 -1 5 -4 -4 -16 2 -26 14 -11 11 -19 18 -19 13 0
-4 -6 -3 -13 3 -17 14 -134 52 -207 67 -8 2 -16 4 -17 5 -2 2 -6 3 -10 4 -49
11 -62 26 -70 75 -4 26 23 75 37 66 6 -4 10 -1 10 4 0 15 151 6 181 -10 13 -8
27 -18 31 -24 4 -5 8 -6 8 -1 0 5 10 1 21 -10 16 -14 23 -16 26 -6 3 7 10 18
17 25 27 27 37 56 26 77 -6 11 -15 18 -21 15 -5 -4 -9 -2 -9 2 0 8 -80 41
-120 51 -25 5 -138 11 -142 6z"/>
<path d="M6332 3954 c-18 -7 -32 -10 -32 -6 0 4 -4 2 -8 -5 -4 -6 -14 -13 -22
-15 -8 -2 -21 -11 -28 -21 -7 -9 -18 -15 -23 -12 -5 4 -9 0 -9 -8 0 -8 -7 -20
-15 -27 -8 -7 -12 -16 -9 -21 3 -5 1 -9 -4 -9 -10 0 -12 -10 -13 -72 -2 -46 2
-66 13 -83 16 -23 60 -70 66 -71 4 0 18 -5 32 -11 29 -13 61 -25 75 -28 6 -2
30 -8 55 -15 25 -7 52 -14 60 -15 8 -2 15 -4 15 -5 0 -1 9 -3 19 -5 10 -2 23
-10 27 -17 5 -7 9 -9 9 -4 0 26 23 -18 25 -48 2 -27 -4 -42 -22 -60 -23 -24
-31 -25 -112 -23 -61 1 -94 7 -106 17 -10 8 -20 14 -22 13 -9 -7 -23 0 -48 25
-16 15 -25 20 -20 12 6 -12 5 -13 -6 -2 -16 15 -29 16 -29 1 0 -7 -11 -21 -24
-33 -29 -27 -41 -56 -21 -56 8 0 20 -9 28 -20 8 -11 17 -17 20 -13 4 3 7 1 7
-6 0 -7 4 -10 9 -6 5 3 15 0 23 -7 7 -7 18 -14 23 -15 6 0 33 -8 62 -16 47
-14 165 -17 213 -5 27 7 85 41 101 59 9 10 20 15 24 11 5 -4 5 -2 1 5 -3 6 -1
15 4 18 14 9 31 51 37 90 4 33 -15 115 -28 115 -4 0 -11 9 -14 20 -4 11 -11
18 -16 15 -5 -4 -12 1 -15 9 -3 9 -10 14 -14 11 -5 -3 -16 2 -24 11 -9 8 -16
12 -16 8 0 -3 -6 -1 -13 5 -8 6 -17 8 -20 4 -4 -3 -7 -2 -7 3 0 5 -14 11 -31
12 -18 1 -37 6 -43 10 -6 3 -22 8 -36 10 -14 1 -32 5 -40 9 -8 3 -22 7 -30 9
-8 2 -16 8 -18 14 -2 5 -8 8 -13 4 -10 -6 -16 7 -22 46 -5 28 5 62 16 60 4 0
14 6 22 13 17 17 133 20 153 5 6 -6 12 -8 12 -4 0 3 24 -7 53 -23 48 -26 54
-27 67 -12 8 8 15 19 15 22 0 4 10 19 22 33 21 24 21 30 1 27 -5 0 -8 4 -8 9
0 6 -7 10 -15 10 -8 0 -15 5 -15 10 0 6 -7 10 -15 10 -8 0 -15 5 -15 12 0 6
-3 9 -6 5 -4 -3 -23 1 -43 9 -49 21 -178 26 -219 8z"/>
<path d="M7017 3964 c-1 -2 -14 -5 -27 -7 -35 -7 -100 -39 -100 -49 0 -5 -5
-6 -10 -3 -6 4 -9 1 -8 -7 2 -7 -3 -12 -10 -10 -8 1 -11 -2 -7 -8 3 -5 1 -10
-4 -10 -6 0 -10 -3 -9 -7 1 -5 -4 -19 -11 -32 -27 -48 -17 -153 17 -174 7 -5
9 -13 6 -19 -4 -6 -3 -8 3 -5 5 3 16 -3 23 -14 8 -10 22 -19 32 -19 10 0 18
-4 18 -10 0 -5 3 -9 8 -9 4 1 10 0 15 -1 4 -1 12 -4 17 -5 6 -1 12 -4 15 -5 3
-1 10 -4 15 -5 6 -1 11 -3 13 -5 1 -1 11 -3 22 -5 11 -2 31 -6 45 -10 14 -3
32 -8 40 -10 8 -2 16 -4 18 -5 2 -2 13 -6 30 -9 18 -4 43 -31 47 -50 4 -23
-14 -85 -22 -77 -3 3 -12 -1 -19 -9 -24 -23 -214 -10 -222 15 -2 6 -8 8 -13 4
-5 -3 -9 0 -9 5 0 6 -3 10 -7 9 -5 -1 -20 6 -35 16 -25 16 -29 16 -43 2 -9 -8
-17 -19 -18 -23 -1 -4 -6 -7 -10 -5 -5 1 -6 -2 -3 -7 4 -5 -1 -14 -10 -19 -16
-9 -16 -11 0 -33 9 -13 16 -19 16 -14 0 6 5 3 10 -5 5 -8 13 -16 17 -16 23 -4
53 -17 53 -23 0 -4 10 -7 22 -8 11 -1 24 -6 27 -10 9 -12 57 -18 141 -16 78 1
97 3 118 16 6 5 16 6 21 3 5 -3 12 1 15 10 4 9 9 14 12 11 3 -3 17 6 31 21 14
15 20 18 12 7 -11 -17 -11 -18 1 -7 8 7 15 16 15 20 1 4 7 18 15 32 17 30 19
41 23 98 2 24 0 45 -5 48 -5 3 -6 9 -3 14 3 4 -2 13 -10 20 -8 7 -12 17 -8 23
3 6 1 7 -5 3 -7 -4 -12 -1 -12 9 0 9 -4 14 -9 10 -5 -3 -12 -1 -16 5 -6 10
-72 47 -87 49 -5 1 -9 1 -10 2 -2 0 -10 2 -18 4 -8 2 -25 6 -37 9 -13 3 -32 8
-44 11 -66 14 -131 44 -123 56 3 5 1 9 -4 9 -14 0 -8 66 8 84 7 9 16 13 21 10
5 -3 9 -1 9 5 0 17 160 7 171 -10 5 -8 9 -10 9 -6 0 9 61 -23 73 -38 4 -6 12
-3 18 9 6 10 20 27 30 37 11 11 16 19 13 19 -4 0 -1 7 6 15 11 13 11 18 0 28
-10 9 -11 9 -6 -1 4 -7 -12 1 -36 16 -56 37 -118 55 -195 57 -35 1 -64 0 -66
-1z"/>
<path d="M9010 3963 c-37 -15 -65 -24 -67 -21 -4 7 -76 -69 -90 -96 -8 -16
-17 -50 -20 -75 -6 -59 23 -126 70 -159 29 -21 120 -52 239 -82 68 -18 90 -40
86 -86 -2 -29 -9 -41 -33 -55 -58 -34 -190 -14 -269 40 l-43 30 -34 -41 c-19
-23 -35 -46 -37 -53 -5 -19 69 -64 149 -92 63 -22 86 -25 164 -21 159 7 242
72 252 196 6 71 -13 119 -60 155 -34 25 -124 60 -192 73 -22 5 -42 9 -45 9
-21 5 -86 38 -92 48 -12 18 -9 60 6 79 41 54 184 41 271 -25 18 -14 22 -12 58
37 l38 51 -27 22 c-15 12 -31 20 -36 17 -4 -3 -8 -1 -8 4 0 28 -233 65 -280
45z"/>
<path d="M2302 3610 l3 -345 215 0 c185 0 220 2 250 17 43 22 82 55 102 88 17
27 22 140 6 140 -5 0 -6 5 -3 10 3 6 1 10 -4 10 -6 0 -11 4 -11 10 0 13 -48
59 -54 53 -3 -3 -8 2 -12 11 -3 9 -10 13 -15 10 -5 -3 -9 1 -9 9 0 19 34 49
45 40 4 -5 5 -3 1 4 -3 6 1 16 11 21 19 11 24 27 28 96 2 33 -2 54 -11 63 -8
8 -12 18 -10 21 2 4 -7 17 -20 30 -13 12 -24 19 -24 15 0 -4 -7 1 -15 11 -8
11 -15 17 -15 13 0 -4 -10 -2 -22 4 -15 8 -91 12 -230 13 l-208 1 2 -345z
m372 211 c9 -7 16 -10 17 -5 1 18 22 -42 23 -66 1 -25 -33 -71 -46 -63 -5 2
-8 1 -8 -4 0 -4 -48 -8 -107 -8 l-108 0 0 81 -1 80 107 -1 c74 0 112 -5 123
-14z m6 -262 c8 -2 26 -16 40 -32 28 -31 35 -93 12 -102 -7 -3 -10 -10 -6 -17
4 -7 4 -10 -1 -6 -4 4 -15 2 -23 -4 -15 -13 -251 -21 -253 -9 -5 25 -3 167 2
171 8 6 206 5 229 -1z"/>
<path d="M3013 3943 c-3 -7 -3 -110 0 -230 4 -188 7 -236 17 -263 1 -3 2 -8 1
-12 0 -5 3 -8 9 -8 6 0 9 -4 8 -8 -6 -18 77 -114 103 -120 8 -2 16 -7 19 -10
24 -32 190 -50 247 -27 17 7 34 11 37 7 3 -3 6 0 6 7 0 7 5 9 10 6 6 -3 10 -1
10 6 0 7 3 10 6 6 11 -11 104 79 104 100 0 7 5 13 11 13 5 0 7 5 4 10 -3 6 -1
10 5 10 6 0 8 5 5 10 -3 6 -3 10 2 10 13 0 16 43 17 280 l1 224 -67 1 c-40 0
-68 -4 -69 -10 0 -5 -1 -109 -2 -230 -2 -220 -2 -220 -29 -261 -14 -22 -42
-48 -61 -57 -39 -19 -147 -23 -147 -6 0 5 -5 7 -11 4 -14 -9 -67 48 -86 93 -8
20 -15 38 -14 40 0 1 1 98 1 215 l0 212 -66 0 c-43 0 -68 -4 -71 -12z"/>
<path d="M4436 3611 l1 -346 69 0 69 0 0 344 0 344 -70 2 -70 1 1 -345z"/>
<path d="M4742 3950 c-5 -4 -8 -620 -3 -678 1 -9 19 -12 68 -10 l67 3 0 223
c0 176 3 222 13 222 7 0 13 -6 13 -14 0 -7 11 -21 25 -30 14 -9 25 -23 25 -31
0 -8 5 -15 10 -15 6 0 10 -4 10 -10 0 -9 19 -35 47 -65 7 -7 9 -15 6 -19 -4
-3 -2 -6 4 -6 6 0 23 -17 39 -37 15 -20 21 -33 13 -29 -8 5 0 -3 16 -18 17
-14 26 -25 21 -26 -5 0 1 -8 12 -19 12 -10 22 -21 22 -25 0 -3 8 -15 18 -25
33 -37 43 -51 35 -51 -4 0 2 -7 15 -15 15 -11 40 -15 84 -13 l63 3 -1 345 0
344 -69 1 -70 1 1 -223 c0 -123 -1 -223 -3 -223 -14 0 -43 23 -43 34 0 8 -7
17 -16 20 -8 3 -13 10 -9 15 3 6 -4 15 -15 21 -11 6 -18 14 -16 19 3 4 -3 15
-12 24 -23 21 -38 40 -39 50 -1 5 -11 17 -22 26 -12 10 -21 22 -21 26 0 4 -8
14 -17 22 -12 10 -13 12 -3 8 8 -4 3 3 -12 15 -16 12 -28 26 -28 32 0 5 -6 15
-12 22 -7 8 -20 24 -28 36 -8 12 -21 28 -27 36 -7 7 -13 17 -13 23 0 13 4 12
-78 14 -35 1 -67 0 -70 -3z"/>
<path d="M5524 3945 c-3 -6 -3 -161 -2 -345 l3 -335 263 -3 c206 -2 262 0 263
10 0 7 1 37 2 66 l2 52 -196 0 -196 0 0 83 -1 83 174 0 c96 -1 174 1 175 4 0
3 2 31 3 63 l2 57 -177 0 -176 0 -1 75 -1 75 195 0 194 0 1 28 c0 15 1 43 3
62 l2 35 -264 0 c-168 0 -266 -4 -268 -10z"/>
<path d="M7762 3610 l0 -350 74 0 74 0 0 350 0 350 -74 0 -74 0 0 -350z"/>
<path d="M8060 3610 l0 -351 73 3 72 3 0 221 c-1 149 3 220 10 217 5 -2 30
-33 55 -68 25 -36 48 -65 53 -65 4 0 7 -4 7 -10 0 -9 78 -116 108 -148 6 -7
12 -16 12 -20 0 -4 14 -21 30 -39 17 -18 30 -36 30 -41 0 -4 9 -18 20 -30 18
-19 32 -22 93 -22 l72 0 0 350 0 350 -72 0 -73 0 0 -220 c0 -138 -4 -220 -10
-220 -5 0 -22 18 -36 40 -15 22 -30 40 -35 40 -4 0 -9 6 -11 13 -2 7 -59 88
-128 180 l-125 167 -72 0 -73 0 0 -350z"/>
<path d="M9499 3888 c0 -67 0 -519 1 -596 l0 -33 72 3 72 3 0 345 1 345 -73 3
-72 3 -1 -73z"/>
<path d="M9795 3613 l0 -348 150 -3 c162 -3 222 6 302 42 197 92 261 334 134
502 -45 59 -98 97 -176 126 -51 19 -86 22 -235 26 l-175 4 0 -349z m358 197
c140 -56 188 -222 95 -334 -49 -60 -97 -78 -208 -80 l-95 -1 -1 210 c-1 116 0
213 2 216 6 11 173 2 207 -11z"/>
<path d="M10570 3610 l0 -350 269 0 269 0 -1 63 -2 62 -195 5 -195 5 0 78 -1
77 46 0 c25 1 105 1 178 1 l132 0 0 64 0 65 -177 2 -178 3 0 55 c-1 97 -18 89
199 92 l191 3 1 62 1 62 -268 1 -269 1 0 -351z"/>
<path d="M11225 3613 l1 -348 72 -3 72 -3 0 116 0 116 61 -2 60 -2 62 -89 c34
-49 67 -97 72 -106 17 -29 27 -32 108 -32 l78 0 -52 78 c-29 42 -55 79 -58 82
-13 11 -51 70 -51 78 0 5 12 15 28 22 47 24 98 86 112 134 33 120 -16 226
-130 280 -40 19 -66 21 -240 24 l-195 3 0 -348z m364 197 c88 -36 77 -155 -17
-179 -39 -10 -156 -13 -183 -5 -24 7 -24 191 0 196 37 8 173 0 200 -12z"/>
<path d="M4924 2979 c-45 -16 -70 -83 -41 -107 7 -6 42 -22 78 -34 72 -26 86
-51 49 -86 -17 -15 -28 -18 -60 -12 -22 4 -47 13 -55 20 -11 9 -19 10 -27 2
-7 -7 -2 -15 18 -25 43 -22 87 -26 121 -12 81 34 55 124 -40 139 -20 4 -47 16
-58 27 -18 18 -19 23 -6 42 18 28 79 35 113 12 21 -13 24 -13 24 -1 0 28 -75
51 -116 35z"/>
<path d="M6841 2969 c-24 -11 -45 -28 -48 -39 -3 -11 -9 -20 -13 -20 -4 0 -11
-16 -14 -35 -7 -37 23 -125 43 -125 5 0 16 -7 25 -15 21 -22 99 -22 131 -1 42
28 66 75 62 123 -8 100 -96 153 -186 112z m102 -21 c35 -18 46 -34 55 -75 23
-103 -87 -173 -166 -105 -41 34 -51 84 -28 134 25 53 88 74 139 46z"/>
<path d="M5284 2958 c-4 -13 -7 -26 -6 -30 1 -5 -2 -8 -7 -8 -5 0 -13 -10 -16
-22 -8 -25 -50 -122 -65 -150 -13 -23 -13 -28 3 -28 6 0 18 14 25 30 14 30 15
30 92 30 77 0 78 0 90 -30 7 -16 18 -30 26 -30 12 0 -44 142 -91 230 -18 33
-41 37 -51 8z m54 -76 c13 -31 25 -62 28 -68 3 -7 -16 -10 -56 -10 -33 1 -60
3 -60 6 0 12 54 130 59 130 3 0 16 -26 29 -58z"/>
<path d="M5528 2962 c59 -145 108 -242 123 -242 9 0 19 8 22 18 2 9 28 68 55
130 34 74 47 112 38 112 -12 0 -28 -32 -91 -177 -11 -24 -22 -43 -26 -43 -6 0
-34 58 -87 183 -16 36 -49 55 -34 19z"/>
<path d="M5910 2850 l0 -130 95 0 c117 0 127 18 13 22 l-82 3 -1 45 0 45 73 3
c39 2 72 7 72 11 0 13 -29 18 -87 15 -56 -2 -60 2 -58 56 l1 35 82 3 c114 4
104 22 -13 22 l-95 0 0 -130z"/>
<path d="M6451 2918 c24 -35 46 -66 51 -69 4 -3 9 -33 11 -67 1 -42 6 -62 15
-62 8 0 12 18 12 59 0 33 3 61 8 63 6 3 82 112 90 131 2 4 -3 7 -10 7 -8 0
-31 -27 -52 -60 -21 -33 -43 -60 -50 -60 -6 1 -28 28 -48 60 -21 33 -44 60
-53 60 -11 0 -4 -17 26 -62z"/>
<path d="M7170 2895 c0 -133 28 -178 110 -178 47 0 86 26 99 65 16 45 14 198
-2 198 -9 0 -12 -25 -12 -90 -1 -111 -19 -144 -81 -147 -72 -5 -91 30 -89 160
0 56 -3 77 -12 77 -10 0 -13 -23 -13 -85z"/>
<path d="M7540 2849 c0 -99 3 -130 12 -127 7 3 13 20 14 39 1 19 2 39 3 44 3
30 100 -1 101 -32 1 -15 40 -55 50 -51 6 2 -3 23 -21 48 -23 32 -28 45 -19 48
27 9 60 51 60 76 0 62 -38 86 -135 86 l-65 0 0 -131z m156 89 c46 -46 5 -98
-77 -98 -27 0 -49 3 -50 8 -1 10 -1 85 0 98 2 17 109 10 127 -8z"/>
<path d="M8055 2971 c-3 -6 16 -11 42 -13 l48 -3 0 -117 c0 -88 3 -118 13
-118 9 0 12 31 12 120 l0 120 45 0 c25 0 45 5 45 10 0 13 -197 13 -205 1z"/>
<path d="M8395 2853 c0 -92 4 -128 13 -131 9 -3 12 27 12 127 0 98 -3 131 -12
131 -10 0 -13 -32 -13 -127z"/>
<path d="M8579 2978 c-1 -2 -2 -60 -3 -130 -1 -98 1 -128 11 -128 10 0 13 24
13 90 0 50 4 90 8 90 5 0 26 -34 47 -75 22 -41 43 -75 47 -75 4 0 26 36 49 80
22 44 44 78 48 76 3 -2 5 -45 5 -95 -1 -71 1 -91 12 -91 11 0 14 26 14 130 0
99 -3 130 -13 130 -15 0 -49 -54 -40 -64 3 -3 2 -6 -4 -6 -5 0 -22 -25 -37
-55 -14 -30 -30 -55 -34 -55 -7 1 -33 47 -77 137 -11 23 -26 42 -32 43 -7 0
-14 -1 -14 -2z"/>
<path d="M8980 2850 l0 -130 95 0 c57 0 95 4 95 10 0 6 -33 10 -79 10 l-79 0
-4 39 c-2 22 -2 45 0 50 2 7 33 11 73 11 49 0 69 4 69 13 0 9 -20 12 -70 11
l-70 -2 0 49 0 49 80 0 c47 0 80 4 80 10 0 6 -38 10 -95 10 l-95 0 0 -130z"/>
</g>
</svg>
